<svg width="12" height="14" viewBox="0 0 12 14" fill="none" xmlns="http://www.w3.org/2000/svg">
<path d="M10.2454 6.4C10.0729 6.175 9.8629 5.98 9.6679 5.785C9.1654 5.335 8.5954 5.0125 8.1154 4.54C6.9979 3.445 6.7504 1.6375 7.4629 0.25C6.7504 0.4225 6.1279 0.8125 5.5954 1.24C3.6529 2.8 2.8879 5.5525 3.8029 7.915C3.8329 7.99 3.8629 8.065 3.8629 8.1625C3.8629 8.3275 3.7504 8.4775 3.6004 8.5375C3.4279 8.6125 3.2479 8.5675 3.1054 8.4475C3.0604 8.41 3.0304 8.3725 3.0004 8.32C2.1529 7.2475 2.0179 5.71 2.5879 4.48C1.3354 5.5 0.652903 7.225 0.750403 8.8525C0.795403 9.2275 0.840403 9.6025 0.967903 9.9775C1.0729 10.4275 1.2754 10.8775 1.5004 11.275C2.3104 12.5725 3.7129 13.5025 5.2204 13.69C6.8254 13.8925 8.5429 13.6 9.7729 12.49C11.1454 11.245 11.6254 9.25 10.9204 7.54L10.8229 7.345C10.6654 7 10.2454 6.4 10.2454 6.4ZM7.8754 11.125C7.6654 11.305 7.3204 11.5 7.0504 11.575C6.2104 11.875 5.3704 11.455 4.8754 10.96C5.7679 10.75 6.3004 10.09 6.4579 9.4225C6.5854 8.8225 6.3454 8.3275 6.2479 7.75C6.1579 7.195 6.1729 6.7225 6.3754 6.205C6.5179 6.49 6.6679 6.775 6.8479 7C7.4254 7.75 8.3329 8.08 8.5279 9.1C8.5579 9.205 8.5729 9.31 8.5729 9.4225C8.5954 10.0375 8.3254 10.7125 7.8754 11.125Z" fill="white"/>
</svg>
